<svg xmlns="http://www.w3.org/2000/svg" xmlns:svg="http://www.w3.org/2000/svg" id="svg2" width="1706.667" height="1066.667" version="1.1" viewBox="0 0 1706.667 1066.667" xml:space="preserve"><metadata id="metadata8"/><defs id="defs6"><clipPath id="clipPath18" clipPathUnits="userSpaceOnUse"><path id="path16" d="M 0,800 H 1280 V 0 H 0 Z"/></clipPath><clipPath id="clipPath74" clipPathUnits="userSpaceOnUse"><path id="path72" d="M 0,800 H 1280 V 0 H 0 Z"/></clipPath><clipPath id="clipPath128" clipPathUnits="userSpaceOnUse"><path id="path126" d="M 0,800 H 1280 V 0 H 0 Z"/></clipPath><clipPath id="clipPath140" clipPathUnits="userSpaceOnUse"><path id="path138" d="M 0,800 H 1280 V 0 H 0 Z"/></clipPath></defs><g id="g10" transform="matrix(1.3333333,0,0,-1.3333333,955.493,249.38967)"><g id="g134" transform="matrix(0.29765316,0,0,0.29765316,413.69235,44.782893)"><g id="g136" clip-path="url(#clipPath140)" transform="matrix(3.6585926,0,0,3.6585926,-4809.6898,-2104.6753)"><g id="g146" transform="matrix(4.7732059,0,0,4.7732059,779.20458,11.551291)"><path id="path148" d="m 0,0 c -4.573,0 -8.281,3.707 -8.281,8.28 v 124.622 c 0,4.573 3.708,8.281 8.281,8.281 4.573,0 8.281,-3.708 8.281,-8.281 V 8.28 C 8.281,3.707 4.573,0 0,0" style="fill:#cedc21;fill-opacity:1;fill-rule:nonzero;stroke:none"/></g><g id="g150" transform="matrix(4.7732059,0,0,4.7732059,779.22987,11.542212)"><path id="path152" d="m 0,0 c -3.099,0 -6.069,1.746 -7.487,4.731 -1.96,4.132 -0.201,9.072 3.931,11.033 l 49.934,23.698 -51.295,37.79 c -3.682,2.713 -4.468,7.897 -1.754,11.58 2.711,3.681 7.898,4.467 11.577,1.754 L 67.347,44.583 c 2.345,-1.728 3.611,-4.56 3.331,-7.46 -0.279,-2.898 -2.06,-5.438 -4.693,-6.687 L 3.545,0.802 C 2.399,0.258 1.19,0 0,0" style="fill:#51b13e;fill-opacity:1;fill-rule:nonzero;stroke:none"/></g><g id="g154" transform="matrix(4.7732059,0,0,4.7732059,779.23704,245.35911)"><path id="path156" d="m 0,0 c -2.542,0 -5.05,1.166 -6.673,3.369 -2.713,3.683 -1.928,8.867 1.755,11.579 L 46.376,52.739 -3.557,76.438 c -4.132,1.96 -5.891,6.899 -3.931,11.031 1.962,4.132 6.902,5.893 11.031,3.93 L 65.984,61.766 c 2.632,-1.249 4.414,-3.789 4.693,-6.688 0.279,-2.9 -0.987,-5.733 -3.332,-7.46 L 4.905,1.614 C 3.426,0.525 1.705,0 0,0" style="fill:#cedc21;fill-opacity:1;fill-rule:nonzero;stroke:none"/></g><g id="g158" transform="matrix(4.7732059,0,0,4.7732059,818.73005,432.0807)"><path id="path160" d="m 0,0 v -35.022 l 23.757,17.503 z" style="fill:#1e7a44;fill-opacity:1;fill-rule:nonzero;stroke:none"/></g><path id="path162" d="m 818.73151,309.4809 h -79.05385 v 192.68958 h 79.05385 z" style="fill:#fff;fill-opacity:1;fill-rule:nonzero;stroke:none;stroke-width:4.77320623"/><g id="g164" transform="matrix(4.7732059,0,0,4.7732059,779.20458,685.44488)"><path id="path166" d="M 0,0 C -4.573,0 -8.281,-3.708 -8.281,-8.281 V -112.496 H 8.281 V -8.281 C 8.281,-3.708 4.573,0 0,0" style="fill:#cedc21;fill-opacity:1;fill-rule:nonzero;stroke:none"/></g></g></g></g></svg>