<svg xmlns="http://www.w3.org/2000/svg" xmlns:cc="http://web.resource.org/cc/" xmlns:svg="http://www.w3.org/2000/svg" id="svg2" width="720" height="720" version="1.1"><path id="path2983" d="m 329.6885371631169,144.9454094414912 c 0,0 -9.3691648630806,-18.5615530306314 -37.6534361478519,-6.3639610390736" style="fill:none;stroke:red;stroke-width:2;stroke-linecap:butt;stroke-linejoin:miter;stroke-opacity:1;display:none"/><path id="path2983-8" d="m 326.8905349710195,144.9454094414912 c 0,0 -9.3691648630806,-18.5615530306314 -37.6534361478519,-6.3639610390736" style="fill:none;stroke:red;stroke-width:2;stroke-linecap:butt;stroke-linejoin:miter;stroke-opacity:1;display:none"/><path id="path3508" d="M 94.6324614631855,36.00250586938022 300.1705854663462,193.5309023590188 342.0166705927379,44.6173400524073 401.0934966535268,195.9922835541695 564.785535530295,54.46286483300981 476.1702964391128,237.8357638717294 616.4777583334849,232.9130014814282 525.4009848231031,347.3672270559314 647.2469385734796,426.1314253007506 502.0164078407082,428.5928064959011 630.0161976390828,582.4291311928135 446.6318834087184,497.5114799601184 426.9396080551219,662.4240200352077 337.0936017543393,529.5094354970756 211.5553463751634,700.5754285600419 223.863018471161,486.4352645819405 52.7863763367938,520.8946013140482 159.8631235719732,380.5958731904649 72.47865169038992,237.8357638717299 194.3246054407665,261.2188852256607 94.6324614631855,36.00250586938069 z" style="fill:red;stroke:none"/><path id="path3512" d="m 160.1985233083172,118.7982717399246 154.3242216264676,118.2770704473064 31.419302606586,-111.8087931572194 44.3566625034159,113.6568723829586 122.9049190198811,-106.2645554800019 -66.5349937551232,137.6819023175674 105.347073445612,-3.6961584514783 -68.3831880260988,85.9356839968712 91.4856164132948,59.1385352236531 -109.0434619875631,1.8480792257391 96.1061020907337,115.5049516086972 -137.6904731876862,-63.7587332880004 -14.7855541678056,123.8213081245232 -67.4590908906114,-99.7962781899145 -94.2579078197586,128.4415061888714 9.2409713548783,-160.7828926393062 -128.4495018328083,25.8731091603477 80.3964507874411,-105.3405158671315 -65.6108966196359,-107.1885950928715 91.4856164132951,17.5567526445221 -74.8518679745143,-169.0992491551333 z" style="fill:#ff8000;stroke:none"/><path id="path3514" d="m 226.2365903979516,204.2096633100054 99.1022747159463,75.9539014973134 20.1765110200129,-71.8001725091792 28.4844861459008,72.9869522200746 78.9257636959331,-68.2398333764925 -42.7267292188508,88.4150884617163 67.6506545965139,-2.373559421791 -43.9135828082631,55.1852565566419 58.7492526759201,37.9769507486567 -70.0243617753388,1.1867797108955 61.7163866494512,74.17373193097 -88.4205924112332,-40.9439000258953 -9.4948287153004,79.5142406299997 -43.3201560135574,-64.0861043883581 -60.529533060039,82.4811899072385 5.9342679470626,-103.2498348479099 -82.4863244641708,16.614915952537 51.6281311394449,-67.6464435210443 -42.1333024241446,-68.8332232319403 58.7492526759201,11.2744072535075 -48.0675703712075,-108.5903435469403 z" style="fill:#ff0;stroke:none"/><path id="path3516" d="m -57.96064186096192,305.2593994140625 a 30.91234397888183,30.91234397888183 0 1 1 -61.82468795776368,0 30.91234397888183,30.91234397888183 0 1 1 61.82468795776368,0 z" transform="translate(435.3488372093023,54.09660107334526)" style="fill:#000;fill-opacity:1;stroke:none"/><metadata/></svg>