<svg xmlns="http://www.w3.org/2000/svg" xmlns:svg="http://www.w3.org/2000/svg" id="svg18" width="106" height="86" fill="none" version="1.1" viewBox="0 0 106 86"><path id="path11" fill="url(#paint0_linear_11985_190892)" fill-rule="evenodd" d="M 83.4613,16.1551 V 86 h 11.578 C 101.094,86 106,81.026 106,74.9015 V 2.47101 c 0,-2.09261199 -2.404,-3.23204199 -3.997,-1.89540199 z" clip-rule="evenodd" style="fill:url(#paint0_linear_11985_190892)"/><path id="path12" fill="url(#paint1_linear_11985_190892)" fill-rule="evenodd" d="M 67.3128,29.7407 46.1604,48.6618 c -3.6066,3.2211 -8.9895,3.2978 -12.6827,0.1862 L 0,20.6691 V 2.482 C 0,0.38939001 2.40441,-0.76099599 3.99653,0.57564301 L 45.998,35.8761 c 4.0615,3.4183 9.9534,3.4183 14.0149,0 z" clip-rule="evenodd" style="fill:url(#paint1_linear_11985_190892)"/><path id="path13" fill="url(#paint2_radial_11985_190892)" d="m 83.4613,16.1661 -16.1485,13.5746 0.0108,-10e-5 -21.1632,18.9212 c -3.6066,3.2211 -8.9895,3.2978 -12.6827,0.1862 L 0,20.6691 V 74.9015 C 0,81.0259 4.9063,86 10.9607,86 h 72.5006 z" style="fill:url(#paint2_radial_11985_190892)"/><defs id="defs18"><linearGradient id="paint0_linear_11985_190892" x1="265.975" x2="244.3" y1="141.754" y2="-73.404" gradientUnits="userSpaceOnUse"><stop id="stop13" offset=".271" stop-color="#E3D9FF"/><stop id="stop14" offset="1" stop-color="#7341FF"/></linearGradient><linearGradient id="paint1_linear_11985_190892" x1="62.635" x2="18.553" y1="86.798" y2="-87.28" gradientUnits="userSpaceOnUse"><stop id="stop15" stop-color="#E3D9FF"/><stop id="stop16" offset="1" stop-color="#7341FF"/></linearGradient><radialGradient id="paint2_radial_11985_190892" cx="0" cy="0" r="1" gradientTransform="matrix(123.614,0,0,125.045,105.538,10.5272)" gradientUnits="userSpaceOnUse"><stop id="stop17" offset=".556" stop-color="#6D4AFF"/><stop id="stop18" offset=".994" stop-color="#AA8EFF"/></radialGradient></defs></svg>