<svg xmlns="http://www.w3.org/2000/svg" width="48" height="48" viewBox="0 0 48 48"><title>blockchain</title><g class="nc-icon-wrapper"><path fill="#a0e6ee" d="M32.874,10.405a.99.99,0,0,0-.353-.369l-8-4.889a1,1,0,0,0-1.042,0l-8,4.889a.99.99,0,0,0-.353.369L24,15.828Z"/><path fill="#6cc4f5" d="M15.126,10.405a1,1,0,0,0-.126.484v8.878a1,1,0,0,0,.479.853l8,4.889a1,1,0,0,0,.521.147V15.828Z"/><path fill="#2594d0" d="M32.874,10.405a1,1,0,0,1,.126.484v8.878a1,1,0,0,1-.479.853l-8,4.889a1,1,0,0,1-.521.147V15.828Z"/><path fill="#a0e6ee" d="M47.874,19.589a.99.99,0,0,0-.353-.369l-8-4.889a1,1,0,0,0-1.042,0l-8,4.889a.99.99,0,0,0-.353.369L39,25.013Z"/><path fill="#6cc4f5" d="M30.126,19.589a1,1,0,0,0-.126.485v8.878a1,1,0,0,0,.479.853l8,4.889a1,1,0,0,0,.521.147V25.013Z"/><path fill="#2594d0" d="M47.874,19.589a1,1,0,0,1,.126.485v8.878a1,1,0,0,1-.479.853l-8,4.889a1,1,0,0,1-.521.147V25.013Z"/><path fill="#a0e6ee" d="M17.874,19.589a.99.99,0,0,0-.353-.369l-8-4.889a1,1,0,0,0-1.042,0l-8,4.889a.99.99,0,0,0-.353.369L9,25.013Z"/><path fill="#6cc4f5" d="M.126,19.589A1,1,0,0,0,0,20.074v8.878a1,1,0,0,0,.479.853l8,4.889A1,1,0,0,0,9,34.841V25.013Z"/><path fill="#2594d0" d="M17.874,19.589a1,1,0,0,1,.126.485v8.878a1,1,0,0,1-.479.853l-8,4.889A1,1,0,0,1,9,34.841V25.013Z"/><path fill="#a0e6ee" d="M32.874,29.577a.99.99,0,0,0-.353-.369l-8-4.889a1,1,0,0,0-1.042,0l-8,4.889a.99.99,0,0,0-.353.369L24,35Z"/><path fill="#6cc4f5" d="M15.126,29.577a1,1,0,0,0-.126.484v8.878a1,1,0,0,0,.479.853l8,4.889a1,1,0,0,0,.521.147V35Z"/><path fill="#2594d0" d="M32.874,29.577a1,1,0,0,1,.126.484v8.878a1,1,0,0,1-.479.853l-8,4.889a1,1,0,0,1-.521.147V35Z"/></g></svg>