<svg xmlns="http://www.w3.org/2000/svg" version="1.1" viewBox="0 0 513 342"><rect width="513" height="342" fill="#0052B4"/><g><path fill="#FFF" d="M440.1,181.1c-0.1,39.2-6.4,81.4-57.4,101.5c-51.1-20.1-57.3-62.3-57.4-101.5L440.1,181.1L440.1,181.1z"/><path fill="#29DBFF" d="M439.6,197.7c-2.8,34.9-12.4,67.4-57,85c-44.4-17.6-54.5-51.2-56.9-84.9"/><path fill="#FFF" d="M437.8,214.1c-3.2,24.3-16.7,53.5-55.1,68.6c-38.4-15.1-50.5-42.5-55.1-68.4"/><path fill="#29DBFF" d="M434.2,230.3c-5.7,17.7-19.3,39.4-51.3,52.8c-32-12.6-45.2-33.8-51.4-53"/><path fill="#FFF" d="M426.7,246.9c-6.5,11.3-17.7,25.4-44,35.9c-27.5-11.5-37.4-25.3-44-36.1"/><path fill="#29DBFF" d="M412.4,265.1c-8.1,7.2-12,11.2-29.6,17.9c-20.1-7.9-22.6-11.6-29.2-17.5"/><path fill="#5CC85C" d="M383.3,231.6c-0.2-0.2-27.9,35.7-27.9,35.7c-1.8-1.3-10-9.5-13.3-15l41.3-50.1l40.2,49.7 c-3.9,6.5-11.4,13.6-13.2,15"/></g><polygon fill="#5CC85C" points="382.6 85.3 356.1 130.3 409.1 130.3 409.1 130.3"/><ellipse cx="291.4" cy="225.7" fill="#F7A226" rx="48.7" ry="15.7" transform="matrix(0.134 -0.991 0.991 0.134 28.7247 484.2523)"/><ellipse cx="303.1" cy="164.7" fill="#DDC7AB" rx="11.7" ry="7.2" transform="matrix(0.373 -0.9278 0.9278 0.373 37.247 384.4472)"/><ellipse cx="291.7" cy="271.7" fill="#DDC7AB" rx="11.4" ry="3.3" transform="matrix(0.1437 -0.9896 0.9896 0.1437 -19.091 521.3171)"/><ellipse cx="299.6" cy="269.4" fill="#DDC7AB" rx="3.3" ry="11" transform="matrix(0.9986 -5.352928e-02 5.352928e-02 0.9986 -13.9925 16.4237)"/><ellipse cx="314.5" cy="201.1" fill="#DDC7AB" rx="4.1" ry="13.7" transform="matrix(0.9303 -0.3668 0.3668 0.9303 -51.8254 129.3871)"/><ellipse cx="317.5" cy="178.1" fill="#DDC7AB" rx="13.7" ry="4.1" transform="matrix(0.9303 -0.3668 0.3668 0.9303 -43.1881 128.875)"/><ellipse cx="473.6" cy="225.9" fill="#F7A226" rx="15.7" ry="48.7" transform="matrix(0.991 -0.134 0.134 0.991 -26.0008 65.5194)"/><ellipse cx="462" cy="164.9" fill="#DDC7AB" rx="7.2" ry="11.7" transform="matrix(0.9278 -0.373 0.373 0.9278 -28.1478 184.2457)"/><ellipse cx="473.4" cy="271.9" fill="#DDC7AB" rx="3.3" ry="11.4" transform="matrix(0.9896 -0.1437 0.1437 0.9896 -34.1512 70.8368)"/><ellipse cx="465.5" cy="269.6" fill="#DDC7AB" rx="11" ry="3.3" transform="matrix(5.352928e-02 -0.9986 0.9986 5.352928e-02 171.3404 719.9983)"/><ellipse cx="450.6" cy="201.2" fill="#DDC7AB" rx="13.7" ry="4.1" transform="matrix(0.3668 -0.9303 0.9303 0.3668 98.0689 546.5782)"/><ellipse cx="447.6" cy="178.3" fill="#DDC7AB" rx="4.1" ry="13.7" transform="matrix(0.3668 -0.9303 0.9303 0.3668 117.5679 529.2617)"/><polygon fill="#B0C6CC" points="373.3 130.3 356.1 155 373.9 181.1 396 181.1 400.7 155.7 395.3 130.3"/><polygon fill="#FFF" points="256 0 256 117.4 209.9 117.4 256 148.1 256 170.7 233.4 170.7 160 121.8 160 170.7 96 170.7 96 121.8 22.6 170.7 0 170.7 0 148.1 46.1 117.4 0 117.4 0 53.4 46.1 53.4 0 22.7 0 0 22.6 0 96 48.9 96 0 160 0 160 48.9 233.4 0"/><polygon fill="#D80027" points="144 0 112 0 112 69.4 0 69.4 0 101.4 112 101.4 112 170.7 144 170.7 144 101.4 256 101.4 256 69.4 144 69.4"/><polygon fill="#2E52B2" points="256 22.7 256 53.4 209.9 53.4"/><g><polygon fill="#D80027" points="0 170.7 0 159.7 62.5 117.4 85.1 117.4 7.3 170.7"/></g><polygon fill="#D80027" points="7.3 .1 85.1 53.3 62.5 53.3 0 11.1 0 .1"/><polygon fill="#D80027" points="256 .1 256 11.1 193.5 53.4 170.9 53.4 248.7 .1"/><polygon fill="#D80027" points="248.7 170.7 170.9 117.4 193.5 117.4 256 159.7 256 170.7"/></svg>