<svg xmlns="http://www.w3.org/2000/svg" viewBox="0 0 513 342"><rect width="513" height="342" y="0" fill="#6DA544"/><polygon points="215.9 171 0 314.6 0 26.8"/><polygon points="513 26.8 513 314.6 296.1 171"/><polygon fill="#0052B4" points="513 26.8 296.1 171 513 314.6 513 342 471.9 342 256 197.4 40.1 342 0 342 0 314.6 215.9 171 0 26.8 0 0 40.1 0 256 143.9 471.9 0 513 0"/><polygon fill="#FFDA44" points="513 26.8 296.1 171 513 314.6 513 342 471.9 342 256 197.4 40.1 342 0 342 0 314.6 215.9 171 0 26.8 0 0 40.1 0 256 143.9 471.9 0 513 0"/></svg>