<svg xmlns="http://www.w3.org/2000/svg" version="1.1" viewBox="0 0 513 342"><rect width="513" height="342" y="0" fill="#FFF"/><g fill="#c00"><rect width="513" height="24.4" y="0"/><rect width="513" height="24.4" y="48.9"/><rect width="513" height="24.4" y="97.7"/><rect width="513" height="24.4" y="146.6"/><rect width="513" height="24.4" y="195.4"/><rect width="513" height="24.4" y="244.3"/><rect width="513" height="24.4" y="293.1"/></g><rect width="256.5" height="195.4" y="0" fill="#006"/><g fill="#fc0"><path d="M153.3,42.1C122.6,30.7,88.5,46.3,77.1,77s4.2,64.8,34.9,76.2c13.3,5,28,5,41.4,0 c-30.7,24.5-75.4,19.6-100-11.1s-19.6-75.4,11.1-100C90.5,21.4,127.4,21.4,153.3,42.1z M180,117.1l-20.6,23.3l5.4-30.6l-31-1.6 l27.3-14.9l-18.1-25.3l28.6,12l8.4-29.9l8.4,29.9l28.6-12L199,93.4l27.3,14.9l-31,1.6l5.4,30.6L180,117.1z"/></g></svg>